<svg width="30.000000" height="30.000000" viewBox="0 0 30 30" fill="none" xmlns="http://www.w3.org/2000/svg" xmlns:xlink="http://www.w3.org/1999/xlink">
	<desc>
			Created with Pixso.
	</desc>
	<defs>
		<clipPath id="clip1_1137">
			<rect id="eva:arrow-back-fill" rx="-0.500000" width="29.000000" height="29.000000" transform="matrix(-1 0 0 1 30.5 0.5)" fill="white" fill-opacity="0"/>
		</clipPath>
	</defs>
	<rect id="eva:arrow-back-fill" rx="-0.500000" width="29.000000" height="29.000000" transform="matrix(-1 0 0 1 30.5 0.5)" fill="#FFFFFF" fill-opacity="0"/>
	<g clip-path="url(#clip1_1137)">
		<path id="Vector" d="M6.25 13.75L21.07 13.75L16.53 8.3C16.32 8.04 16.22 7.71 16.25 7.38C16.28 7.05 16.44 6.74 16.7 6.53C16.95 6.32 17.28 6.22 17.61 6.25C17.94 6.28 18.25 6.44 18.46 6.7L24.71 14.2C24.75 14.25 24.79 14.32 24.82 14.38C24.82 14.45 24.82 14.48 24.91 14.55C24.96 14.69 24.99 14.84 25 15C24.99 15.15 24.96 15.3 24.91 15.45C24.91 15.51 24.91 15.55 24.82 15.61C24.79 15.67 24.75 15.74 24.71 15.8L18.46 23.3C18.34 23.44 18.19 23.55 18.03 23.63C17.86 23.71 17.68 23.75 17.5 23.75C17.2 23.75 16.92 23.64 16.7 23.46C16.57 23.35 16.46 23.22 16.39 23.08C16.31 22.93 16.26 22.77 16.25 22.61C16.23 22.45 16.25 22.28 16.3 22.12C16.35 21.97 16.43 21.82 16.53 21.7L21.07 16.25L6.25 16.25C5.91 16.25 5.6 16.11 5.36 15.88C5.13 15.64 5 15.33 5 15C5 14.66 5.13 14.35 5.36 14.11C5.6 13.88 5.91 13.75 6.25 13.75Z" fill="#FFFFFF" fill-opacity="1.000000" fill-rule="nonzero"/>
	</g>
</svg>
